<svg width="35" height="35" viewBox="0 0 35 35" fill="none" xmlns="http://www.w3.org/2000/svg">
<path fill-rule="evenodd" clip-rule="evenodd" d="M17.5 32.0833C25.5541 32.0833 32.0833 25.5541 32.0833 17.5C32.0833 9.44584 25.5541 2.91666 17.5 2.91666C9.44581 2.91666 2.91663 9.44584 2.91663 17.5C2.91663 25.5541 9.44581 32.0833 17.5 32.0833ZM21.875 14.5833C21.875 16.9996 19.9162 18.9583 17.5 18.9583C15.0837 18.9583 13.125 16.9996 13.125 14.5833C13.125 12.1671 15.0837 10.2083 17.5 10.2083C19.9162 10.2083 21.875 12.1671 21.875 14.5833ZM8.74889 24.7917C10.7443 22.1351 13.9213 20.4167 17.4997 20.4167C21.078 20.4167 24.255 22.1351 26.2505 24.7917C24.255 27.4483 21.078 29.1667 17.4997 29.1667C13.9213 29.1667 10.7443 27.4483 8.74889 24.7917Z" fill="#3E3E3E"/>
</svg>
