<svg width="20" height="20" viewBox="0 0 20 20" fill="none" xmlns="http://www.w3.org/2000/svg">
<g clip-path="url(#clip0_1878_329)">
<path d="M18.5552 -0.166687H11.4688H9.09474H1.93647C1.3405 -0.166687 0.833374 0.316478 0.833374 0.91245V3.28655C0.833374 3.88252 1.31654 4.36569 1.91251 4.36569C2.50848 4.36569 2.99165 3.88252 2.99165 3.28655V1.99159H7.95568V17.675H6.68467C6.0887 17.675 5.60553 18.1582 5.60553 18.7542C5.60553 19.3501 6.0887 19.8333 6.68467 19.8333H13.807C14.4029 19.8333 14.8861 19.3501 14.8861 18.7542C14.8861 18.1582 14.4029 17.675 13.807 17.675H12.488V1.99159H17.4521V3.28655C17.4521 3.88252 17.9352 4.36569 18.5312 4.36569C19.1272 4.36569 19.6103 3.88252 19.6103 3.28655V0.91245C19.6103 0.316478 19.1511 -0.166687 18.5552 -0.166687Z" fill="black"/>
</g>
<defs>
<clipPath id="clip0_1878_329">
<rect width="18.3333" height="18.3333" fill="white" transform="translate(0.833374 0.833313)"/>
</clipPath>
</defs>
</svg>
